<svg xmlns="http://www.w3.org/2000/svg" width="21" height="17" viewBox="0 0 21 17"><g><g><path fill="#fff" d="M20.345 3.438v9.744a3.439 3.439 0 0 1-3.438 3.438H3.439C1.539 16.62 0 15.08 0 13.182V3.438A3.439 3.439 0 0 1 3.44 0h13.468c1.899 0 3.438 1.54 3.438 3.438zm-2.292 3.726h-2.865a1.146 1.146 0 0 0 0 2.292h2.865zm0 6.018v-1.433h-2.865a3.439 3.439 0 0 1 0-6.877h2.865V3.438c0-.633-.513-1.146-1.146-1.146H3.439c-.633 0-1.147.513-1.147 1.146v9.744c0 .633.514 1.146 1.147 1.146h13.468c.633 0 1.146-.513 1.146-1.146z"/></g></g></svg>